<svg xmlns="http://www.w3.org/2000/svg" viewBox="0 0 64 64" role="img" aria-label="K">
  <rect x="0" y="0" width="64" height="64" rx="12" fill="#0b1430"/>
  <g transform="translate(8.706 53.001) scale(0.0674 -0.0674)">
    <path d="M106.7958984375 81V544Q106.7958984375 573 101.54833984375 587.5Q96.30078125 602 80.22314453125 607.5Q64.1455078125 613 32.8251953125 613Q29.990234375 613 29.990234375 619.0Q29.990234375 625 32.8251953125 625Q58.4951171875 625 90.08251953125 623.5Q121.669921875 622 157.009765625 622Q194.5146484375 622 226.01953125 623.5Q257.5244140625 625 282.1943359375 625Q285.029296875 625 285.029296875 619.0Q285.029296875 613 282.1943359375 613Q250.8740234375 613 235.2138671875 607.0Q219.5537109375 601 213.888671875 586.0Q208.2236328125 571 208.2236328125 542V81Q208.2236328125 52 213.388671875 37.0Q218.5537109375 22 234.29638671875 17.0Q250.0390625 12 282.1943359375 12Q285.8642578125 12 285.8642578125 6.0Q285.8642578125 0 282.1943359375 0Q256.5244140625 0 225.51953125 1.0Q194.5146484375 2 157.009765625 2Q121.669921875 2 89.1650390625 1.0Q56.66015625 0 30.990234375 0Q28.990234375 0 28.990234375 6.0Q28.990234375 12 30.990234375 12Q63.1455078125 12 79.3056640625 17.0Q95.4658203125 22 101.130859375 37.0Q106.7958984375 52 106.7958984375 81ZM367.990234375 145 226.5341796875 333.1357421875 300.2626953125 402.37890625 451.77734375 200.5048828125Q492.09765625 144.8447265625 520.00537109375 109.1796875Q547.9130859375 73.5146484375 566.99072265625 53.26220703125Q586.068359375 33.009765625 600.5634765625 24.25732421875Q615.05859375 15.5048828125 628.888671875 13.75244140625Q642.71875 12 659.2138671875 12Q662.2138671875 12 662.2138671875 6.0Q662.2138671875 0 659.2138671875 0Q615.048828125 0 588.048828125 0.0Q561.048828125 0 547.2138671875 0Q533.5341796875 0 523.60693359375 -0.91748046875Q513.6796875 -1.8349609375 506.1748046875 -1.8349609375Q493.009765625 -1.8349609375 483.33984375 3.1650390625Q473.669921875 8.1650390625 460.6650390625 23.1650390625Q447.66015625 38.1650390625 425.990234375 67.1650390625Q404.3203125 96.1650390625 367.990234375 145ZM143.669921875 263.94140625 401.5048828125 526.62109375Q438.669921875 563.7861328125 429.9951171875 588.39306640625Q421.3203125 613 370.8251953125 613Q367.990234375 613 367.990234375 619.0Q367.990234375 625 370.8251953125 625Q397.330078125 625 424.75244140625 623.5Q452.1748046875 622 497.1845703125 622Q543.369140625 622 570.29638671875 623.5Q597.2236328125 625 622.2333984375 625Q625.2333984375 625 625.2333984375 619.0Q625.2333984375 613 622.2333984375 613Q578.2138671875 613 524.8642578125 588.56298828125Q471.5146484375 564.1259765625 427.009765625 520.62109375L170.1748046875 261.6015625Z" fill="#e8c46a"/>
  </g>
</svg>