<svg xmlns="http://www.w3.org/2000/svg" viewBox="0 0 1100 689.3" role="img" aria-label="KOTCHAMI">
  <defs><linearGradient id="gl" x1="0" y1="0" x2="0.35" y2="1">
      <stop offset="0%" stop-color="#5e3f12"/>
      <stop offset="20%" stop-color="#a87c2c"/>
      <stop offset="44%" stop-color="#f4d57e"/>
      <stop offset="54%" stop-color="#fff7df"/>
      <stop offset="66%" stop-color="#edc868"/>
      <stop offset="86%" stop-color="#b0832f"/>
      <stop offset="100%" stop-color="#6b4715"/>
    </linearGradient></defs>
  <g transform="translate(351.52 438.95) scale(0.5743 -0.5743)">
    <path d="M106.7958984375 81V544Q106.7958984375 573 101.54833984375 587.5Q96.30078125 602 80.22314453125 607.5Q64.1455078125 613 32.8251953125 613Q29.990234375 613 29.990234375 619.0Q29.990234375 625 32.8251953125 625Q58.4951171875 625 90.08251953125 623.5Q121.669921875 622 157.009765625 622Q194.5146484375 622 226.01953125 623.5Q257.5244140625 625 282.1943359375 625Q285.029296875 625 285.029296875 619.0Q285.029296875 613 282.1943359375 613Q250.8740234375 613 235.2138671875 607.0Q219.5537109375 601 213.888671875 586.0Q208.2236328125 571 208.2236328125 542V81Q208.2236328125 52 213.388671875 37.0Q218.5537109375 22 234.29638671875 17.0Q250.0390625 12 282.1943359375 12Q285.8642578125 12 285.8642578125 6.0Q285.8642578125 0 282.1943359375 0Q256.5244140625 0 225.51953125 1.0Q194.5146484375 2 157.009765625 2Q121.669921875 2 89.1650390625 1.0Q56.66015625 0 30.990234375 0Q28.990234375 0 28.990234375 6.0Q28.990234375 12 30.990234375 12Q63.1455078125 12 79.3056640625 17.0Q95.4658203125 22 101.130859375 37.0Q106.7958984375 52 106.7958984375 81ZM367.990234375 145 226.5341796875 333.1357421875 300.2626953125 402.37890625 451.77734375 200.5048828125Q492.09765625 144.8447265625 520.00537109375 109.1796875Q547.9130859375 73.5146484375 566.99072265625 53.26220703125Q586.068359375 33.009765625 600.5634765625 24.25732421875Q615.05859375 15.5048828125 628.888671875 13.75244140625Q642.71875 12 659.2138671875 12Q662.2138671875 12 662.2138671875 6.0Q662.2138671875 0 659.2138671875 0Q615.048828125 0 588.048828125 0.0Q561.048828125 0 547.2138671875 0Q533.5341796875 0 523.60693359375 -0.91748046875Q513.6796875 -1.8349609375 506.1748046875 -1.8349609375Q493.009765625 -1.8349609375 483.33984375 3.1650390625Q473.669921875 8.1650390625 460.6650390625 23.1650390625Q447.66015625 38.1650390625 425.990234375 67.1650390625Q404.3203125 96.1650390625 367.990234375 145ZM143.669921875 263.94140625 401.5048828125 526.62109375Q438.669921875 563.7861328125 429.9951171875 588.39306640625Q421.3203125 613 370.8251953125 613Q367.990234375 613 367.990234375 619.0Q367.990234375 625 370.8251953125 625Q397.330078125 625 424.75244140625 623.5Q452.1748046875 622 497.1845703125 622Q543.369140625 622 570.29638671875 623.5Q597.2236328125 625 622.2333984375 625Q625.2333984375 625 625.2333984375 619.0Q625.2333984375 613 622.2333984375 613Q578.2138671875 613 524.8642578125 588.56298828125Q471.5146484375 564.1259765625 427.009765625 520.62109375L170.1748046875 261.6015625Z" fill="url(#gl)"/>
  </g>
  <g transform="translate(166.77 607.98) scale(0.1116 -0.1116)">
    <path d="M106.7958984375 81.0V544.0Q106.7958984375 573.0 101.54833984375 587.5Q96.30078125 602.0 80.22314453125 607.5Q64.1455078125 613.0 32.8251953125 613.0Q29.990234375 613.0 29.990234375 619.0Q29.990234375 625.0 32.8251953125 625.0Q58.4951171875 625.0 90.08251953125 623.5Q121.669921875 622.0 157.009765625 622.0Q194.5146484375 622.0 226.01953125 623.5Q257.5244140625 625.0 282.1943359375 625.0Q285.029296875 625.0 285.029296875 619.0Q285.029296875 613.0 282.1943359375 613.0Q250.8740234375 613.0 235.2138671875 607.0Q219.5537109375 601.0 213.888671875 586.0Q208.2236328125 571.0 208.2236328125 542.0V81.0Q208.2236328125 52.0 213.388671875 37.0Q218.5537109375 22.0 234.29638671875 17.0Q250.0390625 12.0 282.1943359375 12.0Q285.8642578125 12.0 285.8642578125 6.0Q285.8642578125 0.0 282.1943359375 0.0Q256.5244140625 0.0 225.51953125 1.0Q194.5146484375 2.0 157.009765625 2.0Q121.669921875 2.0 89.1650390625 1.0Q56.66015625 0.0 30.990234375 0.0Q28.990234375 0.0 28.990234375 6.0Q28.990234375 12.0 30.990234375 12.0Q63.1455078125 12.0 79.3056640625 17.0Q95.4658203125 22.0 101.130859375 37.0Q106.7958984375 52.0 106.7958984375 81.0ZM367.990234375 145.0 226.5341796875 333.1357421875 300.2626953125 402.37890625 451.77734375 200.5048828125Q492.09765625 144.8447265625 520.00537109375 109.1796875Q547.9130859375 73.5146484375 566.99072265625 53.26220703125Q586.068359375 33.009765625 600.5634765625 24.25732421875Q615.05859375 15.5048828125 628.888671875 13.75244140625Q642.71875 12.0 659.2138671875 12.0Q662.2138671875 12.0 662.2138671875 6.0Q662.2138671875 0.0 659.2138671875 0.0Q615.048828125 0.0 588.048828125 0.0Q561.048828125 0.0 547.2138671875 0.0Q533.5341796875 0.0 523.60693359375 -0.91748046875Q513.6796875 -1.8349609375 506.1748046875 -1.8349609375Q493.009765625 -1.8349609375 483.33984375 3.1650390625Q473.669921875 8.1650390625 460.6650390625 23.1650390625Q447.66015625 38.1650390625 425.990234375 67.1650390625Q404.3203125 96.1650390625 367.990234375 145.0ZM143.669921875 263.94140625 401.5048828125 526.62109375Q438.669921875 563.7861328125 429.9951171875 588.39306640625Q421.3203125 613.0 370.8251953125 613.0Q367.990234375 613.0 367.990234375 619.0Q367.990234375 625.0 370.8251953125 625.0Q397.330078125 625.0 424.75244140625 623.5Q452.1748046875 622.0 497.1845703125 622.0Q543.369140625 622.0 570.29638671875 623.5Q597.2236328125 625.0 622.2333984375 625.0Q625.2333984375 625.0 625.2333984375 619.0Q625.2333984375 613.0 622.2333984375 613.0Q578.2138671875 613.0 524.8642578125 588.56298828125Q471.5146484375 564.1259765625 427.009765625 520.62109375L170.1748046875 261.6015625ZM1230 -12Q1158 -12 1099.5 13.5Q1041 39 999.5 84.0Q958 129 935.5 187.5Q913 246 913 312Q913 393 944.5 454.0Q976 515 1028.0 555.5Q1080 596 1142.0 616.0Q1204 636 1265 636Q1339 636 1397.5 609.5Q1456 583 1497.0 538.0Q1538 493 1559.5 436.0Q1581 379 1581 319Q1581 249 1553.0 189.0Q1525 129 1476.5 84.0Q1428 39 1364.5 13.5Q1301 -12 1230 -12ZM1263.4951171875 12.1748046875Q1321.8056640625 12.1748046875 1367.951171875 44.25732421875Q1414.0966796875 76.33984375 1440.9169921875 138.58740234375Q1467.7373046875 200.8349609375 1467.7373046875 290.1650390625Q1467.7373046875 382.66015625 1438.33447265625 454.74267578125Q1408.931640625 526.8251953125 1354.62109375 568.3251953125Q1300.310546875 609.8251953125 1224.669921875 609.8251953125Q1129.5439453125 609.8251953125 1077.9033203125 540.330078125Q1026.2626953125 470.8349609375 1026.2626953125 348.5048828125Q1026.2626953125 276.0 1043.84033203125 214.5Q1061.41796875 153.0 1093.23828125 107.3349609375Q1125.05859375 61.669921875 1168.45654296875 36.92236328125Q1211.8544921875 12.1748046875 1263.4951171875 12.1748046875ZM2055.068359375 602.990234375Q1993.73828125 602.990234375 1953.548828125 564.22314453125Q1913.359375 525.4560546875 1890.669921875 450.9609375Q1889.8349609375 448.1259765625 1884.669921875 448.54345703125Q1879.5048828125 448.9609375 1879.5048828125 451.7958984375Q1881.5048828125 465.4658203125 1883.58740234375 490.55322265625Q1885.669921875 515.640625 1888.08740234375 545.06298828125Q1890.5048828125 574.4853515625 1892.0048828125 601.90771484375Q1893.5048828125 629.330078125 1893.5048828125 647.0Q1893.5048828125 652.0 1899.08740234375 652.0Q1904.669921875 652.0 1904.669921875 647.0Q1904.669921875 637.0 1915.0048828125 632.5Q1925.33984375 628.0 1938.6748046875 626.5Q1952.009765625 625.0 1961.009765625 625.0Q2047.009765625 622.0 2162.009765625 622.0Q2232.1748046875 622.0 2274.09228515625 623.5Q2316.009765625 625.0 2355.009765625 625.0Q2390.5146484375 625.0 2409.0146484375 629.5Q2427.5146484375 634.0 2432.5146484375 650.0Q2433.5146484375 654.0 2438.93212890625 654.0Q2444.349609375 654.0 2444.349609375 650.0Q2442.5146484375 634.1650390625 2440.93212890625 606.24267578125Q2439.349609375 578.3203125 2437.93212890625 547.48046875Q2436.5146484375 516.640625 2435.5146484375 490.6357421875Q2434.5146484375 464.630859375 2434.5146484375 451.7958984375Q2434.5146484375 448.9609375 2429.349609375 448.9609375Q2424.1845703125 448.9609375 2423.349609375 451.7958984375Q2410.8251953125 530.4658203125 2371.88330078125 566.72802734375Q2332.94140625 602.990234375 2272.291015625 602.990234375Q2247.8349609375 602.990234375 2235.189453125 597.8203125Q2222.5439453125 592.650390625 2218.3837890625 579.56787109375Q2214.2236328125 566.4853515625 2214.2236328125 542.0V81.0Q2214.2236328125 52.0 2220.388671875 37.0Q2226.5537109375 22.0 2244.7138671875 17.0Q2262.8740234375 12.0 2300.1943359375 12.0Q2303.029296875 12.0 2303.029296875 6.0Q2303.029296875 0.0 2300.1943359375 0.0Q2272.5244140625 0.0 2237.93701171875 1.0Q2203.349609375 2.0 2162.009765625 2.0Q2122.669921875 2.0 2088.08251953125 1.0Q2053.4951171875 0.0 2024.8251953125 0.0Q2021.990234375 0.0 2021.990234375 6.0Q2021.990234375 12.0 2024.8251953125 12.0Q2061.1455078125 12.0 2079.8056640625 17.0Q2098.4658203125 22.0 2105.130859375 37.0Q2111.7958984375 52.0 2111.7958984375 81.0V544.0Q2111.7958984375 567.650390625 2107.55322265625 580.3154296875Q2103.310546875 592.98046875 2091.0 597.9853515625Q2078.689453125 602.990234375 2055.068359375 602.990234375ZM3114.69921875 636.0Q3147.1748046875 636.0 3179.6748046875 632.8349609375Q3212.1748046875 629.669921875 3241.009765625 623.09228515625Q3269.8447265625 616.5146484375 3291.66015625 606.359375Q3300.1650390625 603.1943359375 3302.5 599.0244140625Q3304.8349609375 594.8544921875 3305.8349609375 583.5244140625L3318.669921875 448.650390625Q3318.669921875 445.8154296875 3313.58740234375 444.73291015625Q3308.5048828125 443.650390625 3306.669921875 447.650390625Q3279.66015625 528.98046875 3228.3251953125 572.56787109375Q3176.990234375 616.1552734375 3101.33984375 616.1552734375Q3029.8740234375 616.1552734375 2974.31103515625 579.57275390625Q2918.748046875 542.990234375 2887.2578125 475.8251953125Q2855.767578125 408.66015625 2855.767578125 315.8251953125Q2855.767578125 246.650390625 2874.67529296875 189.90283203125Q2893.5830078125 133.1552734375 2927.98583984375 92.4951171875Q2962.388671875 51.8349609375 3008.708984375 29.75732421875Q3055.029296875 7.6796875 3110.01953125 7.6796875Q3183.4951171875 7.6796875 3230.90283203125 46.6748046875Q3278.310546875 85.669921875 3316.1748046875 169.009765625Q3318.009765625 172.009765625 3322.6748046875 171.009765625Q3327.33984375 170.009765625 3327.33984375 167.1748046875L3313.4951171875 46.1455078125Q3312.4951171875 34.1455078125 3310.07763671875 30.72802734375Q3307.66015625 27.310546875 3299.1552734375 23.310546875Q3250.330078125 4.4951171875 3203.16015625 -3.8349609375Q3155.990234375 -12.1650390625 3109.8544921875 -12.1650390625Q3002.349609375 -12.1650390625 2918.8447265625 28.5Q2835.33984375 69.1650390625 2787.669921875 142.07763671875Q2740.0 214.990234375 2740.0 309.8154296875Q2740.0 381.8154296875 2768.169921875 441.90283203125Q2796.33984375 501.990234375 2847.3447265625 545.24267578125Q2898.349609375 588.4951171875 2966.689453125 612.24755859375Q3035.029296875 636.0 3114.69921875 636.0ZM4131.7763671875 542.0Q4131.7763671875 571.0 4126.114104195927 586.0Q4120.451841204354 601.0 4102.52134173104 607.0Q4084.590842257725 613.0 4047.7861328125 613.0Q4044.7861328125 613.0 4044.7861328125 619.0Q4044.7861328125 625.0 4047.7861328125 625.0Q4073.362292778201 625.0 4106.166497951601 623.5Q4138.970703125 622.0 4182.990234375 622.0Q4218.330078125 622.0 4252.92236328125 623.5Q4287.5146484375 625.0 4313.01953125 625.0Q4316.01953125 625.0 4316.01953125 619.0Q4316.01953125 613.0 4313.01953125 613.0Q4279.25 613.0 4261.9208984375 607.5Q4244.591796875 602.0 4238.8154296875 587.5Q4233.0390625 573.0 4233.0390625 544.0V81.0Q4233.0390625 52.0 4238.8154296875 37.0Q4244.591796875 22.0 4261.9208984375 17.0Q4279.25 12.0 4313.01953125 12.0Q4316.01953125 12.0 4316.01953125 6.0Q4316.01953125 0.0 4313.01953125 0.0Q4287.5146484375 0.0 4252.92236328125 1.0Q4218.330078125 2.0 4182.990234375 2.0Q4138.970703125 2.0 4106.166497951601 1.0Q4073.362292778201 0.0 4047.7861328125 0.0Q4044.7861328125 0.0 4044.7861328125 6.0Q4044.7861328125 12.0 4047.7861328125 12.0Q4084.590842257725 12.0 4102.52134173104 17.0Q4120.451841204354 22.0 4126.114104195927 37.0Q4131.7763671875 52.0 4131.7763671875 81.0ZM3742.1845703125 311.8251953125V338.33984375H4177.990234375V311.8251953125ZM3694.8056640625 81.0V544.0Q3694.8056640625 573.0 3689.0374275807585 587.5Q3683.269191099017 602.0 3666.4081921523875 607.5Q3649.5471932057585 613.0 3615.8251953125 613.0Q3612.990234375 613.0 3612.990234375 619.0Q3612.990234375 625.0 3615.8251953125 625.0Q3641.4951171875 625.0 3673.9725328382556 623.5Q3706.449948489011 622.0 3741.6796875 622.0Q3785.8642578125 622.0 3819.6472439236113 623.5Q3853.430230034722 625.0 3880.2236328125 625.0Q3882.2236328125 625.0 3882.2236328125 619.0Q3882.2236328125 613.0 3880.2236328125 613.0Q3844.362633865871 613.0 3826.4321343925562 607.0Q3808.5016349192415 601.0 3802.3675166783705 586.0Q3796.2333984375 571.0 3796.2333984375 542.0V81.0Q3796.2333984375 52.0 3802.2333984375 37.0Q3808.2333984375 22.0 3826.4646915584417 17.0Q3844.695984679383 12.0 3880.2236328125 12.0Q3882.2236328125 12.0 3882.2236328125 6.0Q3882.2236328125 0.0 3880.2236328125 0.0Q3852.2652994791665 0.0 3819.064778645833 1.0Q3785.8642578125 2.0 3741.6796875 2.0Q3706.194633152174 2.0 3672.927394701087 1.0Q3639.66015625 0.0 3613.990234375 0.0Q3611.990234375 0.0 3611.990234375 6.0Q3611.990234375 12.0 3613.990234375 12.0Q3648.650390625 12.0 3665.6455078125 17.0Q3682.640625 22.0 3688.72314453125 37.0Q3694.8056640625 52.0 3694.8056640625 81.0ZM4731.7861328125 238.572265625 4745.7958984375 264.921875H5029.009765625L5036.009765625 238.572265625ZM5269.2041015625 12.0Q5274.0390625 12.0 5274.0390625 6.0Q5274.0390625 0.0 5269.2041015625 0.0Q5239.5341796875 0.0 5207.529296875 2.0Q5175.5244140625 4.0 5146.01953125 4.0Q5112.5146484375 4.0 5087.92724609375 2.0Q5063.33984375 0.0 5033 0Q5029 0 5029.0 6.0Q5029 12 5033 12Q5076.4755859375 12.0 5084.2958984375 28.25244140625Q5092.1162109375 44.5048828125 5068.1064453125 92.349609375L4861.310546875 507.3779296875L4905.359375 581.990234375L4707.349609375 138.8642578125Q4680.6796875 78.69921875 4705.8544921875 45.349609375Q4731.029296875 12.0 4789.009765625 12.0Q4794.009765625 12.0 4794.009765625 6.0Q4794.009765625 0.0 4789.009765625 0.0Q4759.009765625 0.0 4734.009765625 2.0Q4709.009765625 4.0 4671.009765625 4.0Q4632.669921875 4.0 4609.5 2.0Q4586.330078125 0.0 4552.990234375 0.0Q4548.990234375 0.0 4548.990234375 6.0Q4548.990234375 12.0 4552.990234375 12.0Q4579.990234375 12.0 4599.57275390625 23.25244140625Q4619.1552734375 34.5048828125 4638.3251953125 64.26220703125Q4657.4951171875 94.01953125 4681.669921875 148.69921875L4897.349609375 629.990234375Q4898.5146484375 632.990234375 4905.93701171875 633.40771484375Q4913.359375 633.8251953125 4914.359375 629.990234375L5161.388671875 137.0Q5185.2236328125 89.5048828125 5202.80615234375 62.0048828125Q5220.388671875 34.5048828125 5236.30126953125 23.25244140625Q5252.2138671875 12.0 5269.2041015625 12.0ZM5596.4951171875 123.2041015625 5606.4951171875 602.0 5634.33984375 600.0 5623.669921875 123.2041015625Q5622.669921875 70.5341796875 5644.3447265625 41.26708984375Q5666.01953125 12.0 5708.5048828125 12.0Q5711.33984375 12.0 5711.33984375 6.0Q5711.33984375 0.0 5708.5048828125 0.0Q5686.5048828125 0.0 5663.42236328125 1.0Q5640.33984375 2.0 5611.5048828125 2.0Q5580.8251953125 2.0 5555.4853515625 1.0Q5530.1455078125 0.0 5508.4755859375 0.0Q5505.640625 0.0 5505.640625 6.0Q5505.640625 12.0 5508.4755859375 12.0Q5549.640625 12.0 5572.56787109375 41.26708984375Q5595.4951171875 70.5341796875 5596.4951171875 123.2041015625ZM6307.708984375 12.0Q6309.8740234375 12.0 6309.8740234375 6.0Q6309.8740234375 0.0 6307.708984375 0.0Q6282.0390625 0.0 6249.61669921875 1.0Q6217.1943359375 2.0 6181.689453125 2.0Q6145.6796875 2.0 6114.669921875 1.0Q6083.66015625 0.0 6058.4853515625 0.0Q6055.650390625 0.0 6055.650390625 6.0Q6055.650390625 12.0 6058.4853515625 12.0Q6105.98046875 12.0 6119.6455078125 25.0Q6133.310546875 38.0 6130.4755859375 81.0L6108.30078125 533.0869140625L6155.669921875 605.990234375L5899.5146484375 7.0Q5898.5146484375 3.0 5891.93212890625 3.0Q5885.349609375 3.0 5883.349609375 7.0L5608.4560546875 542.0Q5571.4462890625 613.0 5515.4755859375 613.0Q5512.640625 613.0 5512.640625 619.0Q5512.640625 625.0 5515.4755859375 625.0Q5535.4853515625 625.0 5557.4951171875 624.0Q5579.5048828125 623.0 5594.6796875 623.0Q5618.69921875 623.0 5636.96142578125 624.0Q5655.2236328125 625.0 5665.3984375 625.0Q5679.3984375 625.0 5686.98095703125 615.1650390625Q5694.5634765625 605.330078125 5711.3984375 573.0L5936.2236328125 140.6220703125L5890.1845703125 58.5439453125L6126.1650390625 600.0Q6132.0 613.5048828125 6138.830078125 619.25244140625Q6145.66015625 625.0 6156.1650390625 625.0Q6165.33984375 625.0 6176.1748046875 624.0Q6187.009765625 623.0 6201.6796875 623.0Q6232.689453125 623.0 6254.11669921875 624.0Q6275.5439453125 625.0 6296.8837890625 625.0Q6299.71875 625.0 6299.71875 619.0Q6299.71875 613.0 6296.8837890625 613.0Q6250.388671875 613.0 6228.64111328125 595.07275390625Q6206.8935546875 577.1455078125 6208.728515625 536.8154296875L6231.9033203125 81.0Q6233.73828125 52.0 6239.4033203125 37.0Q6245.068359375 22.0 6260.728515625 17.0Q6276.388671875 12.0 6307.708984375 12.0ZM6763.2236328125 81.0Q6763.2236328125 52.0 6768.388671875 37.0Q6773.5537109375 22.0 6789.29638671875 17.0Q6805.0390625 12.0 6837.1943359375 12.0Q6840.029296875 12.0 6840.029296875 6.0Q6840.029296875 0.0 6837.1943359375 0.0Q6811.310321514423 0.0 6780.033804086539 1.0Q6748.757286658654 2.0 6711.009765625 2.0Q6675.159381734914 2.0 6643.111311287716 1.0Q6611.063240840517 0.0 6584.990234375 0.0Q6582.8251953125 0.0 6582.8251953125 6.0Q6582.8251953125 12.0 6585.32421875 12.0Q6616.978515625 12.0 6633.22216796875 17.0Q6649.4658203125 22.0 6655.130859375 37.0Q6660.7958984375 52.0 6660.7958984375 81.0V544.0Q6660.7958984375 573.0 6655.321044921875 587.5Q6649.84619140625 602.0 6633.421630859375 607.5Q6616.9970703125 613.0 6584.990234375 613.0Q6582.8251953125 613.0 6582.8251953125 619.0Q6582.8251953125 625.0 6584.990234375 625.0Q6611.063240840517 625.0 6643.111311287716 623.5Q6675.159381734914 622.0 6711.009765625 622.0Q6748.757286658654 622.0 6780.5730543870195 623.5Q6812.388822115385 625.0 6837.1943359375 625.0Q6840.029296875 625.0 6840.029296875 619.0Q6840.029296875 613.0 6837.1943359375 613.0Q6805.6113390976125 613.0 6789.819840677668 607.0Q6774.028342257725 601.0 6768.6259875351125 586.0Q6763.2236328125 571.0 6763.2236328125 542.0Z" fill="url(#gl)"/>
  </g>
</svg>